<?xml version="1.0" standalone="no"?>
<!DOCTYPE svg PUBLIC "-//W3C//DTD SVG 20010904//EN"
 "http://www.w3.org/TR/2001/REC-SVG-20010904/DTD/svg10.dtd">
<svg version="1.0" xmlns="http://www.w3.org/2000/svg"
 width="512.000000pt" height="512.000000pt" viewBox="0 0 512.000000 512.000000"
 preserveAspectRatio="xMidYMid meet">
<metadata>
Created by potrace 1.14, written by Peter Selinger 2001-2017
</metadata>
<g transform="translate(0.000000,512.000000) scale(0.100000,-0.100000)"
fill="#000000" stroke="none">
<path d="M1169 3886 c-2 -2 -24 -6 -49 -9 -203 -26 -413 -110 -581 -233 -283
-209 -466 -507 -524 -854 -20 -119 -13 -365 13 -490 112 -523 492 -903 1017
-1016 82 -18 258 -23 387 -11 145 14 364 82 490 153 33 19 62 34 64 34 9 0
124 78 174 118 53 42 220 201 220 208 0 2 15 19 33 38 17 18 57 64 87 101 30
37 60 73 65 79 11 12 215 265 227 281 4 6 18 22 30 36 13 15 37 44 53 65 17
21 35 42 40 48 25 27 86 106 82 106 -3 0 9 15 27 32 17 18 47 53 66 77 58 72
208 252 263 314 134 153 302 236 492 242 129 3 209 -14 315 -67 139 -70 241
-181 300 -328 32 -78 40 -117 45 -222 5 -87 3 -89 -78 -103 -18 -3 -60 -12
-95 -20 -34 -8 -76 -17 -94 -20 -17 -3 -34 -8 -38 -10 -3 -2 -19 -6 -35 -9
-212 -39 -435 -108 -435 -136 0 -5 -8 -16 -17 -25 -10 -10 -18 -39 -21 -69 -5
-64 23 -127 71 -157 36 -22 63 -22 227 6 186 32 234 38 300 39 l55 1 -2 -50
c-3 -61 -24 -81 -133 -125 -314 -125 -563 -95 -963 118 -88 48 -121 51 -183
20 -52 -25 -74 -66 -74 -135 0 -41 5 -54 28 -75 104 -97 391 -237 587 -286
100 -26 123 -29 295 -47 41 -5 70 -24 70 -47 0 -4 -9 -17 -20 -28 -19 -19 -30
-20 -133 -16 -141 7 -280 40 -452 109 -119 47 -330 163 -377 207 -40 37 -86
55 -115 44 -47 -16 -80 -109 -58 -161 32 -76 282 -221 520 -301 172 -58 258
-71 460 -67 178 3 192 4 319 36 511 129 892 543 991 1079 14 78 15 355 0 430
-24 127 -25 132 -56 225 -126 373 -429 671 -814 800 -146 49 -252 64 -440 60
-93 -1 -181 -5 -195 -8 -14 -4 -38 -9 -55 -12 -34 -7 -121 -32 -150 -45 -263
-112 -451 -256 -696 -536 -86 -98 -267 -314 -337 -403 -32 -40 -83 -102 -97
-117 -5 -6 -26 -30 -45 -54 -19 -24 -40 -48 -45 -54 -6 -6 -44 -51 -85 -101
-41 -49 -77 -92 -80 -95 -3 -3 -30 -34 -60 -70 -92 -108 -103 -121 -153 -173
-26 -27 -64 -69 -85 -92 -51 -58 -123 -106 -212 -143 -87 -35 -110 -41 -200
-48 -36 -2 -79 -6 -97 -8 -73 -8 -279 69 -348 130 -16 14 -39 33 -50 43 -27
21 -87 97 -112 142 -19 34 -59 144 -67 186 -11 54 -9 163 3 181 7 12 105 33
216 47 28 3 68 10 90 16 22 6 49 13 60 15 210 40 273 58 323 92 129 86 147
225 40 305 -45 34 -109 37 -258 11 -72 -12 -245 -13 -280 -1 -27 9 -36 18 -38
40 -2 16 3 35 10 44 21 26 150 82 224 97 108 22 294 21 413 -4 124 -25 165
-41 356 -135 83 -41 164 -76 180 -78 54 -7 114 34 140 96 37 89 2 144 -140
225 -202 114 -417 199 -550 219 -16 2 -46 8 -65 13 -19 5 -60 12 -90 15 -118
13 -130 17 -130 44 0 39 33 53 125 52 47 0 90 -3 94 -5 4 -3 30 -8 57 -12 27
-3 60 -11 74 -16 14 -5 25 -9 25 -8 0 6 105 -27 197 -61 125 -46 267 -119 390
-200 80 -53 91 -57 120 -48 55 15 80 49 81 107 0 65 -18 93 -96 143 -272 172
-610 276 -903 277 -67 0 -124 -1 -125 -2z"/>
</g>
</svg>
